<svg width="657.9px" height="122px" xmlns="http://www.w3.org/2000/svg" viewBox="-78.94687499999998 14 657.89375 122" style="background: rgba(0, 0, 0, 0)" preserveAspectRatio="xMidYMid"><defs><linearGradient id="editing-gradient-gradient" x1="0" x2="1" y1="0.5" y2="0.5" gradientUnits="objectBoundingBox"><stop offset="0" stop-color="#0063ff"></stop><stop offset="1" stop-color="#e64dde"></stop></linearGradient></defs><g><g transform="matrix(1.3,0,0,1.5,-46,173.7)"><path d="M 9 -43.7 L -5 -43.7 L 3.2 -85.9 L 17.2 -85.9 L 9 -43.7 Z M 64.7 -42.4 L 64.7 -42.4 L 64.7 -42.4 Q 57 -42.4 57 -48.4 L 57 -48.4 L 57 -48.4 Q 57 -51 58.1 -56.1 L 58.1 -56.1 L 58.1 -56.1 Q 59.2 -61.2 59.6 -63.3 L 59.6 -63.3 L 59.6 -63.3 Q 60.5 -67.9 60.5 -69.4 L 60.5 -69.4 L 60.5 -69.4 Q 60.5 -72.7 58.1 -72.7 L 58.1 -72.7 L 58.1 -72.7 Q 56.5 -72.7 54.9 -70.5 L 54.9 -70.5 L 54.9 -70.5 Q 53.4 -68.3 52.7 -63.8 L 52.7 -63.8 L 48.7 -43.7 L 36.2 -42.4 L 39.7 -59.8 L 39.7 -59.8 Q 40.3 -62.7 40.8 -66 L 40.8 -66 L 40.8 -66 Q 41.3 -69.2 41.3 -69.7 L 41.3 -69.7 L 41.3 -69.7 Q 41.3 -72.7 39.1 -72.7 L 39.1 -72.7 L 39.1 -72.7 Q 37.7 -72.7 36.1 -70.5 L 36.1 -70.5 L 36.1 -70.5 Q 34.5 -68.3 33.6 -63.8 L 33.6 -63.8 L 29.7 -43.7 L 17 -42.4 L 23.8 -76.3 L 34.2 -77.6 L 33.1 -71.1 L 33.1 -71.1 Q 34.8 -74.6 37.8 -76.1 L 37.8 -76.1 L 37.8 -76.1 Q 40.9 -77.6 45.7 -77.6 L 45.7 -77.6 L 45.7 -77.6 Q 48.5 -77.6 50.3 -76.3 L 50.3 -76.3 L 50.3 -76.3 Q 52.1 -74.9 52.6 -72.7 L 52.6 -72.7 L 52.6 -72.7 Q 53.7 -75 56.5 -76.3 L 56.5 -76.3 L 56.5 -76.3 Q 59.3 -77.6 62.7 -77.6 L 62.7 -77.6 L 62.7 -77.6 Q 66.1 -77.6 67.8 -76.9 L 67.8 -76.9 L 67.8 -76.9 Q 69.5 -76.1 70.5 -74.9 L 70.5 -74.9 L 70.5 -74.9 Q 72.3 -72.7 72.3 -68.6 L 72.3 -68.6 L 72.3 -68.6 Q 72.3 -64.5 70.5 -56.2 L 70.5 -56.2 L 70.5 -56.2 Q 69.7 -52.1 69.7 -50.6 L 69.7 -50.6 L 69.7 -50.6 Q 69.7 -49.1 70.5 -48.2 L 70.5 -48.2 L 70.5 -48.2 Q 71.4 -47.3 72.7 -47.1 L 72.7 -47.1 L 72.7 -47.1 Q 72 -45 69.8 -43.7 L 69.8 -43.7 L 69.8 -43.7 Q 67.6 -42.4 64.7 -42.4 Z M 80.4 -45.6 L 80.4 -45.6 L 80.4 -45.6 Q 78.9 -47.3 78.2 -49.9 L 78.2 -49.9 L 78.2 -49.9 Q 77.5 -52.5 77.5 -56.8 L 77.5 -56.8 L 77.5 -56.8 Q 77.5 -61.1 79 -65 L 79 -65 L 79 -65 Q 80.5 -68.9 83.2 -71.7 L 83.2 -71.7 L 83.2 -71.7 Q 88.7 -77.6 97.7 -77.6 L 97.7 -77.6 L 97.7 -77.6 Q 101 -77.6 103.4 -76.5 L 103.4 -76.5 L 114.3 -77.6 L 109.6 -52.6 L 109.6 -52.6 Q 109.4 -51.9 109.4 -50.5 L 109.4 -50.5 L 109.4 -50.5 Q 109.4 -49.1 110.3 -48.2 L 110.3 -48.2 L 110.3 -48.2 Q 111.1 -47.3 112.4 -47.1 L 112.4 -47.1 L 112.4 -47.1 Q 111.8 -45 109.4 -43.7 L 109.4 -43.7 L 109.4 -43.7 Q 107.1 -42.4 104.5 -42.4 L 104.5 -42.4 L 104.5 -42.4 Q 101.8 -42.4 100.1 -43.4 L 100.1 -43.4 L 100.1 -43.4 Q 98.3 -44.4 97.8 -46.1 L 97.8 -46.1 L 97.8 -46.1 Q 96.8 -44.5 94.6 -43.4 L 94.6 -43.4 L 94.6 -43.4 Q 92.4 -42.4 89.5 -42.4 L 89.5 -42.4 L 89.5 -42.4 Q 86.6 -42.4 84.2 -43.2 L 84.2 -43.2 L 84.2 -43.2 Q 81.9 -43.9 80.4 -45.6 Z M 93.9 -71.6 L 93.9 -71.6 L 93.9 -71.6 Q 93.1 -70.4 92.5 -68.5 L 92.5 -68.5 L 92.5 -68.5 Q 91.9 -66.5 90.8 -61.3 L 90.8 -61.3 L 90.8 -61.3 Q 89.7 -56.1 89.7 -52.4 L 89.7 -52.4 L 89.7 -52.4 Q 89.7 -48.7 90.3 -47.6 L 90.3 -47.6 L 90.3 -47.6 Q 90.9 -46.5 91.9 -46.5 L 91.9 -46.5 L 91.9 -46.5 Q 94 -46.5 95.5 -48.5 L 95.5 -48.5 L 95.5 -48.5 Q 97 -50.4 97.6 -53.9 L 97.6 -53.9 L 100.9 -72.6 L 100.9 -72.6 Q 99.6 -73.8 98 -73.8 L 98 -73.8 L 98 -73.8 Q 96.5 -73.8 95.5 -73.3 L 95.5 -73.3 L 95.5 -73.3 Q 94.6 -72.7 93.9 -71.6 Z M 122.1 -70.4 L 122.1 -70.4 L 122.1 -70.4 Q 124.2 -73.5 127.5 -75.6 L 127.5 -75.6 L 127.5 -75.6 Q 130.8 -77.6 134.9 -77.6 L 134.9 -77.6 L 134.9 -77.6 Q 138.9 -77.6 140.8 -76.3 L 140.8 -76.3 L 153.4 -77.6 L 149 -53 L 149 -53 Q 146.8 -40.5 142 -35.6 L 142 -35.6 L 142 -35.6 Q 137.5 -30.9 128.7 -30.9 L 128.7 -30.9 L 128.7 -30.9 Q 121.9 -30.9 118.1 -33 L 118.1 -33 L 118.1 -33 Q 114.3 -35.1 114.3 -38.6 L 114.3 -38.6 L 114.3 -38.6 Q 114.3 -41.3 116.2 -42.8 L 116.2 -42.8 L 116.2 -42.8 Q 118.2 -44.3 121.3 -44.3 L 121.3 -44.3 L 121.3 -44.3 Q 124 -44.3 126 -43 L 126 -43 L 126 -43 Q 127.3 -42.4 127.8 -41.5 L 127.8 -41.5 L 127.8 -41.5 Q 126.4 -40.2 126.4 -38.1 L 126.4 -38.1 L 126.4 -38.1 Q 126.4 -35.4 128.9 -35.4 L 128.9 -35.4 L 128.9 -35.4 Q 133.2 -35.4 135.6 -45.5 L 135.6 -45.5 L 135.6 -45.5 Q 136.3 -48.2 136.9 -51 L 136.9 -51 L 136.9 -51 Q 134 -47.5 127.5 -47.5 L 127.5 -47.5 L 127.5 -47.5 Q 123 -47.5 120.3 -49.6 L 120.3 -49.6 L 120.3 -49.6 Q 117.7 -51.8 117.7 -56.9 L 117.7 -56.9 L 117.7 -56.9 Q 117.7 -60.1 118.8 -63.7 L 118.8 -63.7 L 118.8 -63.7 Q 119.9 -67.4 122.1 -70.4 Z M 130.4 -56.7 L 130.4 -56.7 L 130.4 -56.7 Q 130.4 -52.4 132.6 -52.4 L 132.6 -52.4 L 132.6 -52.4 Q 134.2 -52.4 135.6 -54.1 L 135.6 -54.1 L 135.6 -54.1 Q 136.8 -55.4 137.2 -57.4 L 137.2 -57.4 L 140.5 -73.8 L 140.5 -73.8 Q 140.2 -73.9 139.9 -74 L 139.9 -74 L 139.9 -74 Q 139.2 -74.3 138.4 -74.3 L 138.4 -74.3 L 138.4 -74.3 Q 134.5 -74.3 132.2 -67.9 L 132.2 -67.9 L 132.2 -67.9 Q 130.4 -62.9 130.4 -56.7 Z M 181.8 -54.5 L 181.8 -54.5 L 181.8 -54.5 Q 183.4 -53.4 183.4 -51 L 183.4 -51 L 183.4 -51 Q 183.4 -48.6 182.2 -47.1 L 182.2 -47.1 L 182.2 -47.1 Q 180.9 -45.5 179 -44.5 L 179 -44.5 L 179 -44.5 Q 174.9 -42.4 170.5 -42.4 L 170.5 -42.4 L 170.5 -42.4 Q 166 -42.4 163.4 -43.4 L 163.4 -43.4 L 163.4 -43.4 Q 160.9 -44.3 159.1 -46.1 L 159.1 -46.1 L 159.1 -46.1 Q 155.7 -49.5 155.7 -55.7 L 155.7 -55.7 L 155.7 -55.7 Q 155.7 -65.4 161 -71.3 L 161 -71.3 L 161 -71.3 Q 166.6 -77.6 176.4 -77.6 L 176.4 -77.6 L 176.4 -77.6 Q 182.5 -77.6 185.5 -75 L 185.5 -75 L 185.5 -75 Q 187.7 -73.1 187.7 -70 L 187.7 -70 L 187.7 -70 Q 187.7 -58.7 168.3 -58.7 L 168.3 -58.7 L 168.3 -58.7 Q 168 -57.1 168 -55.7 L 168 -55.7 L 168 -55.7 Q 168 -52.7 169.3 -51.6 L 169.3 -51.6 L 169.3 -51.6 Q 170.6 -50.5 173.1 -50.5 L 173.1 -50.5 L 173.1 -50.5 Q 175.5 -50.5 178.1 -51.6 L 178.1 -51.6 L 178.1 -51.6 Q 180.7 -52.7 181.8 -54.5 Z M 168.7 -61.5 L 168.7 -61.5 L 168.7 -61.5 Q 173.3 -61.5 175.9 -64.3 L 175.9 -64.3 L 175.9 -64.3 Q 178.5 -67 178.5 -71.3 L 178.5 -71.3 L 178.5 -71.3 Q 178.5 -72.7 178 -73.5 L 178 -73.5 L 178 -73.5 Q 177.4 -74.3 176.3 -74.3 L 176.3 -74.3 L 176.3 -74.3 Q 175.3 -74.3 174.3 -73.9 L 174.3 -73.9 L 174.3 -73.9 Q 173.4 -73.5 172.4 -72.1 L 172.4 -72.1 L 172.4 -72.1 Q 170.1 -68.9 168.7 -61.5 Z M 209 -66.1 L 209 -66.1 L 209 -66.1 Q 209.9 -68.5 209.9 -70.6 L 209.9 -70.6 L 209.9 -70.6 Q 209.9 -74.3 206.9 -74.3 L 206.9 -74.3 L 206.9 -74.3 Q 205.3 -74.3 204 -72.9 L 204 -72.9 L 204 -72.9 Q 202.6 -71.5 202.6 -69.7 L 202.6 -69.7 L 202.6 -69.7 Q 202.6 -68.4 203.7 -67.4 L 203.7 -67.4 L 203.7 -67.4 Q 205.1 -66 208.9 -63.7 L 208.9 -63.7 L 208.9 -63.7 Q 212.7 -61.3 214.1 -59.5 L 214.1 -59.5 L 214.1 -59.5 Q 215.6 -57.6 215.6 -55 L 215.6 -55 L 215.6 -55 Q 215.6 -52.4 214.3 -50 L 214.3 -50 L 214.3 -50 Q 213.1 -47.7 210.8 -46 L 210.8 -46 L 210.8 -46 Q 206 -42.4 198.4 -42.4 L 198.4 -42.4 L 198.4 -42.4 Q 194.2 -42.4 191 -44.6 L 191 -44.6 L 191 -44.6 Q 187.8 -46.7 187.8 -49.2 L 187.8 -49.2 L 187.8 -49.2 Q 187.8 -51.7 189.6 -53.2 L 189.6 -53.2 L 189.6 -53.2 Q 191.4 -54.6 194.1 -54.6 L 194.1 -54.6 L 194.1 -54.6 Q 196.8 -54.6 198.5 -53.6 L 198.5 -53.6 L 198.5 -53.6 Q 197.7 -51.5 197.7 -50.1 L 197.7 -50.1 L 197.7 -50.1 Q 197.7 -45.9 201.2 -45.9 L 201.2 -45.9 L 201.2 -45.9 Q 202.8 -45.9 203.8 -46.8 L 203.8 -46.8 L 203.8 -46.8 Q 204.8 -47.8 204.8 -49.4 L 204.8 -49.4 L 204.8 -49.4 Q 204.8 -52.7 199.3 -56.2 L 199.3 -56.2 L 199.3 -56.2 Q 194.8 -59.1 193.8 -60.3 L 193.8 -60.3 L 193.8 -60.3 Q 192.1 -62.3 192.1 -64.9 L 192.1 -64.9 L 192.1 -64.9 Q 192.1 -67.4 193.3 -69.9 L 193.3 -69.9 L 193.3 -69.9 Q 194.5 -72.3 196.8 -74 L 196.8 -74 L 196.8 -74 Q 201.4 -77.6 209.6 -77.6 L 209.6 -77.6 L 209.6 -77.6 Q 213.7 -77.6 216.2 -75.9 L 216.2 -75.9 L 216.2 -75.9 Q 218.6 -74.3 218.6 -71.5 L 218.6 -71.5 L 218.6 -71.5 Q 218.6 -68.6 216.9 -67 L 216.9 -67 L 216.9 -67 Q 215.3 -65.4 212.2 -65.4 L 212.2 -65.4 L 212.2 -65.4 Q 210.1 -65.4 209 -66.1 Z M 260.1 -64.3 L 273 -65.4 L 273 -65.4 Q 268.4 -55.3 268.4 -43.6 L 268.4 -43.6 L 268.4 -43.6 Q 266.7 -42.4 264.2 -42.4 L 264.2 -42.4 L 264.2 -42.4 Q 261.7 -42.4 260.1 -43.6 L 260.1 -43.6 L 260.1 -43.6 Q 258.5 -44.8 258.1 -46 L 258.1 -46 L 258.1 -46 Q 256.5 -44.3 253.9 -43.4 L 253.9 -43.4 L 253.9 -43.4 Q 251.3 -42.4 248.6 -42.4 L 248.6 -42.4 L 248.6 -42.4 Q 245.8 -42.4 243.4 -43.3 L 243.4 -43.3 L 243.4 -43.3 Q 241 -44.2 239.2 -46.2 L 239.2 -46.2 L 239.2 -46.2 Q 235.1 -50.5 235.1 -58.8 L 235.1 -58.8 L 235.1 -58.8 Q 235.1 -71.6 241.9 -79.3 L 241.9 -79.3 L 241.9 -79.3 Q 249 -87.2 261.5 -87.2 L 261.5 -87.2 L 261.5 -87.2 Q 270.1 -87.2 273.2 -82.7 L 273.2 -82.7 L 273.2 -82.7 Q 274.1 -81.3 274.1 -79.6 L 274.1 -79.6 L 274.1 -79.6 Q 274.1 -77.9 273.4 -76.5 L 273.4 -76.5 L 273.4 -76.5 Q 272.7 -75 271.5 -73.9 L 271.5 -73.9 L 271.5 -73.9 Q 268.8 -71.3 265.4 -71.3 L 265.4 -71.3 L 265.4 -71.3 Q 264 -71.3 262.7 -71.8 L 262.7 -71.8 L 262.7 -71.8 Q 263 -73.7 263 -75.9 L 263 -75.9 L 263 -75.9 Q 263 -78.2 262.8 -79.2 L 262.8 -79.2 L 262.8 -79.2 Q 262.7 -80.2 262.3 -81.1 L 262.3 -81.1 L 262.3 -81.1 Q 261.5 -82.8 259.6 -82.8 L 259.6 -82.8 L 259.6 -82.8 Q 257.8 -82.8 255.8 -80.8 L 255.8 -80.8 L 255.8 -80.8 Q 253.8 -78.9 252.2 -75.7 L 252.2 -75.7 L 252.2 -75.7 Q 248.7 -68.5 248.7 -59.9 L 248.7 -59.9 L 248.7 -59.9 Q 248.7 -55.9 250.2 -53.1 L 250.2 -53.1 L 250.2 -53.1 Q 251.9 -50 254.8 -50 L 254.8 -50 L 254.8 -50 Q 255.8 -50 256.8 -50.5 L 256.8 -50.5 L 256.8 -50.5 Q 257.7 -51 258.1 -51.4 L 258.1 -51.4 L 260.1 -64.3 Z M 279 -45.6 L 279 -45.6 L 279 -45.6 Q 277.5 -47.3 276.8 -49.9 L 276.8 -49.9 L 276.8 -49.9 Q 276.1 -52.5 276.1 -56.8 L 276.1 -56.8 L 276.1 -56.8 Q 276.1 -61.1 277.6 -65 L 277.6 -65 L 277.6 -65 Q 279.1 -68.9 281.7 -71.7 L 281.7 -71.7 L 281.7 -71.7 Q 287.3 -77.6 296.3 -77.6 L 296.3 -77.6 L 296.3 -77.6 Q 299.6 -77.6 302 -76.5 L 302 -76.5 L 312.9 -77.6 L 308.2 -52.6 L 308.2 -52.6 Q 308 -51.9 308 -50.5 L 308 -50.5 L 308 -50.5 Q 308 -49.1 308.9 -48.2 L 308.9 -48.2 L 308.9 -48.2 Q 309.7 -47.3 311 -47.1 L 311 -47.1 L 311 -47.1 Q 310.4 -45 308 -43.7 L 308 -43.7 L 308 -43.7 Q 305.7 -42.4 303.1 -42.4 L 303.1 -42.4 L 303.1 -42.4 Q 300.4 -42.4 298.7 -43.4 L 298.7 -43.4 L 298.7 -43.4 Q 296.9 -44.4 296.4 -46.1 L 296.4 -46.1 L 296.4 -46.1 Q 295.4 -44.5 293.2 -43.4 L 293.2 -43.4 L 293.2 -43.4 Q 291 -42.4 288.1 -42.4 L 288.1 -42.4 L 288.1 -42.4 Q 285.2 -42.4 282.8 -43.2 L 282.8 -43.2 L 282.8 -43.2 Q 280.5 -43.9 279 -45.6 Z M 292.5 -71.6 L 292.5 -71.6 L 292.5 -71.6 Q 291.7 -70.4 291.1 -68.5 L 291.1 -68.5 L 291.1 -68.5 Q 290.5 -66.5 289.4 -61.3 L 289.4 -61.3 L 289.4 -61.3 Q 288.3 -56.1 288.3 -52.4 L 288.3 -52.4 L 288.3 -52.4 Q 288.3 -48.7 288.9 -47.6 L 288.9 -47.6 L 288.9 -47.6 Q 289.5 -46.5 290.5 -46.5 L 290.5 -46.5 L 290.5 -46.5 Q 292.6 -46.5 294.1 -48.5 L 294.1 -48.5 L 294.1 -48.5 Q 295.6 -50.4 296.1 -53.9 L 296.1 -53.9 L 299.5 -72.6 L 299.5 -72.6 Q 298.2 -73.8 296.6 -73.8 L 296.6 -73.8 L 296.6 -73.8 Q 295.1 -73.8 294.1 -73.3 L 294.1 -73.3 L 294.1 -73.3 Q 293.2 -72.7 292.5 -71.6 Z M 331.7 -47.2 L 331.7 -47.2 L 331.7 -47.2 Q 329.7 -42.4 323.3 -42.4 L 323.3 -42.4 L 323.3 -42.4 Q 320.1 -42.4 318.1 -44.6 L 318.1 -44.6 L 318.1 -44.6 Q 316.4 -46.5 316.4 -48.6 L 316.4 -48.6 L 316.4 -48.6 Q 316.4 -53.4 318.7 -63.9 L 318.7 -63.9 L 323.3 -88.5 L 336.3 -89.8 L 330.1 -57.4 L 330.1 -57.4 Q 329 -52.6 329 -51 L 329 -51 L 329 -51 Q 329 -47.3 331.7 -47.2 Z M 352.4 -47.2 L 352.4 -47.2 L 352.4 -47.2 Q 350.4 -42.4 344.1 -42.4 L 344.1 -42.4 L 344.1 -42.4 Q 340.9 -42.4 338.8 -44.6 L 338.8 -44.6 L 338.8 -44.6 Q 337.2 -46.5 337.2 -48.6 L 337.2 -48.6 L 337.2 -48.6 Q 337.2 -53.4 339.4 -63.9 L 339.4 -63.9 L 344.1 -88.5 L 357.1 -89.8 L 350.9 -57.4 L 350.9 -57.4 Q 349.8 -52.6 349.8 -51 L 349.8 -51 L 349.8 -51 Q 349.8 -47.3 352.4 -47.2 Z M 383.8 -54.5 L 383.8 -54.5 L 383.8 -54.5 Q 385.4 -53.4 385.4 -51 L 385.4 -51 L 385.4 -51 Q 385.4 -48.6 384.1 -47.1 L 384.1 -47.1 L 384.1 -47.1 Q 382.9 -45.5 380.9 -44.5 L 380.9 -44.5 L 380.9 -44.5 Q 376.9 -42.4 372.4 -42.4 L 372.4 -42.4 L 372.4 -42.4 Q 368 -42.4 365.4 -43.4 L 365.4 -43.4 L 365.4 -43.4 Q 362.8 -44.3 361.1 -46.1 L 361.1 -46.1 L 361.1 -46.1 Q 357.7 -49.5 357.7 -55.7 L 357.7 -55.7 L 357.7 -55.7 Q 357.7 -65.4 363 -71.3 L 363 -71.3 L 363 -71.3 Q 368.6 -77.6 378.4 -77.6 L 378.4 -77.6 L 378.4 -77.6 Q 384.5 -77.6 387.5 -75 L 387.5 -75 L 387.5 -75 Q 389.7 -73.1 389.7 -70 L 389.7 -70 L 389.7 -70 Q 389.7 -58.7 370.3 -58.7 L 370.3 -58.7 L 370.3 -58.7 Q 370 -57.1 370 -55.7 L 370 -55.7 L 370 -55.7 Q 370 -52.7 371.3 -51.6 L 371.3 -51.6 L 371.3 -51.6 Q 372.6 -50.5 375.1 -50.5 L 375.1 -50.5 L 375.1 -50.5 Q 377.5 -50.5 380.1 -51.6 L 380.1 -51.6 L 380.1 -51.6 Q 382.7 -52.7 383.8 -54.5 Z M 370.7 -61.5 L 370.7 -61.5 L 370.7 -61.5 Q 375.3 -61.5 377.9 -64.3 L 377.9 -64.3 L 377.9 -64.3 Q 380.5 -67 380.5 -71.3 L 380.5 -71.3 L 380.5 -71.3 Q 380.5 -72.7 380 -73.5 L 380 -73.5 L 380 -73.5 Q 379.4 -74.3 378.3 -74.3 L 378.3 -74.3 L 378.3 -74.3 Q 377.2 -74.3 376.3 -73.9 L 376.3 -73.9 L 376.3 -73.9 Q 375.4 -73.5 374.4 -72.1 L 374.4 -72.1 L 374.4 -72.1 Q 372.1 -68.9 370.7 -61.5 Z M 411.9 -61.7 L 411.9 -61.7 L 411.9 -61.7 Q 414.2 -65.8 414.2 -69.9 L 414.2 -69.9 L 414.2 -69.9 Q 414.2 -72.7 412.2 -72.7 L 412.2 -72.7 L 412.2 -72.7 Q 410.7 -72.7 409.1 -70.1 L 409.1 -70.1 L 409.1 -70.1 Q 407.4 -67.4 406.9 -64 L 406.9 -64 L 403.6 -43.7 L 390.4 -42.4 L 396.9 -76.3 L 407.4 -77.6 L 406.3 -71.1 L 406.3 -71.1 Q 409.4 -77.6 416.5 -77.6 L 416.5 -77.6 L 416.5 -77.6 Q 420.2 -77.6 422.2 -75.7 L 422.2 -75.7 L 422.2 -75.7 Q 424.2 -73.8 424.2 -69.8 L 424.2 -69.8 L 424.2 -69.8 Q 424.2 -65.9 421.6 -63.4 L 421.6 -63.4 L 421.6 -63.4 Q 419 -60.9 414.6 -60.9 L 414.6 -60.9 L 414.6 -60.9 Q 412.7 -60.9 411.9 -61.7 Z M 445.6 -50.9 L 445.6 -50.9 L 445.6 -50.9 Q 442.3 -47.5 436.2 -47.5 L 436.2 -47.5 L 436.2 -47.5 Q 428.6 -47.5 427 -53 L 427 -53 L 427 -53 Q 426.5 -54.7 426.5 -56.5 L 426.5 -56.5 L 426.5 -56.5 Q 426.5 -58.4 426.8 -60.3 L 426.8 -60.3 L 429.8 -76.3 L 442.8 -77.6 L 439.3 -59 L 439.3 -59 Q 439.2 -58.1 439 -57.3 L 439 -57.3 L 439 -57.3 Q 438.8 -56.4 438.8 -55.4 L 438.8 -55.4 L 438.8 -55.4 Q 438.8 -54.5 439.1 -53.9 L 439.1 -53.9 L 439.1 -53.9 Q 439.4 -53.3 439.9 -52.9 L 439.9 -52.9 L 439.9 -52.9 Q 440.7 -52.4 442 -52.4 L 442 -52.4 L 442 -52.4 Q 443.4 -52.4 444.6 -54.1 L 444.6 -54.1 L 444.6 -54.1 Q 445.8 -55.7 446.4 -58.6 L 446.4 -58.6 L 449.9 -76.3 L 462.5 -77.6 L 457.7 -52.5 L 457.7 -52.5 Q 455.3 -40.2 450.5 -35.3 L 450.5 -35.3 L 450.5 -35.3 Q 448 -32.8 444.7 -31.8 L 444.7 -31.8 L 444.7 -31.8 Q 441.5 -30.8 437.3 -30.8 L 437.3 -30.8 L 437.3 -30.8 Q 430.6 -30.8 426.8 -32.9 L 426.8 -32.9 L 426.8 -32.9 Q 422.9 -35 422.9 -38.6 L 422.9 -38.6 L 422.9 -38.6 Q 422.9 -41.2 424.9 -42.7 L 424.9 -42.7 L 424.9 -42.7 Q 426.9 -44.2 430 -44.2 L 430 -44.2 L 430 -44.2 Q 432.7 -44.2 434.7 -43 L 434.7 -43 L 434.7 -43 Q 435.9 -42.3 436.5 -41.4 L 436.5 -41.4 L 436.5 -41.4 Q 435 -40.2 435 -38.1 L 435 -38.1 L 435 -38.1 Q 435 -35.2 437.6 -35.2 L 437.6 -35.2 L 437.6 -35.2 Q 441.8 -35.2 444.2 -45 L 444.2 -45 L 444.2 -45 Q 444.9 -47.8 445.6 -50.9 Z" fill="url(#editing-gradient-gradient)"></path></g></g><style>text {
  font-size: 64px;
  font-family: Arial Black;
  dominant-baseline: central;
  text-anchor: middle;
}</style></svg>